<?xml version="1.0" encoding="utf-8"?>
<!-- Generator: Adobe Illustrator 22.0.1, SVG Export Plug-In . SVG Version: 6.00 Build 0)  -->
<svg version="1.1" id="Capa_1" xmlns="http://www.w3.org/2000/svg" xmlns:xlink="http://www.w3.org/1999/xlink" x="0px" y="0px"
	 viewBox="0 0 512 512" style="enable-background:new 0 0 512 512;" xml:space="preserve">
<style type="text/css">
	.st0{fill:#377FBF;}
</style>
<g>
	<path class="st0" d="M502.8,114L457.8,69c-6.2-6.2-13.7-9.2-22.5-9.2c-8.8,0-16.3,3.1-22.5,9.2l-216.7,217l-97.1-97.4
		c-6.2-6.2-13.7-9.2-22.5-9.2c-8.8,0-16.3,3.1-22.5,9.2L9.2,233.5C3.1,239.7,0,247.2,0,256c0,8.8,3.1,16.3,9.2,22.5L128.8,398
		l44.9,44.9c6.2,6.2,13.7,9.2,22.5,9.2c8.8,0,16.3-3.1,22.5-9.2l44.9-44.9l239.2-239.2c6.2-6.2,9.2-13.7,9.2-22.5
		C512,127.6,508.9,120.1,502.8,114z"/>
</g>
</svg>
